{"title":"Jackass.3D.UNRATED.DVDRip.XviD-DiVERSiTY","uid":6228488,"size":756601197,"categoryP":"video","categoryS":"movies","magnet":"?xt=urn:btih:ef8092793dd337b0a4ee4ae4523ff9ca23d5ebff&amp;dn=Jackass.3D.UNRATED.DVDRip.XviD-DiVERSiTY&amp;tr=udp%3A%2F%2Ftracker.openbittorrent.com%3A80&amp;tr=udp%3A%2F%2Fopen.demonii.com%3A1337&amp;tr=udp%3A%2F%2Ftracker.coppersurfer.tk%3A6969&amp;tr=udp%3A%2F%2Fexodus.desync.com%3A6969","seeders":0,"leechers":0,"uploader":"sceneline","files":5,"time":1299609799,"description":"-\nhttp:// www . torrentkit. com        \nhttp:// www .torrentkit. com       the fast  and The Hottest Private Tracker on the net\n\nPlease Seed back to make the speed Faster!!!\n\nand don't forget to visit      ...... www .torrentkit .com..........\n- @@@@@@@   @@@  @@@  @@@  @@@@@@@@  @@@@@@@   @@@@@@    @@@  @@@@@@@  @@@ @@@ \n @@@@@@@@  @@@  @@@  @@@  @@@@@@@@  @@@@@@@@  @@@@@@@   @@@  @@@@@@@  @@@ @@@ \n @@!  @@@  @@!  @@!  @@@  @@!       @@!  @@@  !@@       @@!    @@!    @@! !@@ \n !@!  @!@  !@!  !@!  @!@  !@!       !@!  @!@  !@!       !@!    !@!    !@! @!! \n @!@  !@!  !!@  @!@  !@!  @!!!:!    @!@!!@!   !!@@!!    !!@    @!!     !@!@!  \n !@!  !!!  !!!  !@!  !!!  !!!!!:    !!@!@!     !!@!!!   !!!    !!!      @!!!  \n !!:  !!!  !!:  :!:  !!:  !!:       !!: :!!        !:!  !!:    !!:      !!:   \n :!:  !:!  :!:   ::!!:!   :!:       :!:  !:!      !:!   :!:    :!:      :!:   \n :::: ::   ::    ::::     :: ::::   ::   :::  :::: ::    ::     ::       ::   \n :: :  :   :       :      : :: ::    :   : :  :: : :    :       :        :    \n\n[pre]\n[IMG]http://leetleech.org/images/56005969674129041111.jpg[/IMG]\n[color=Green][size=4]Jackass.3D.UNRATED.DVDRip.XviD-DiVERSiTY[/size][/color]\n\n[color=Green]General[/color]\n\nComplete name                    : Jackass.3D.UNRATED.DVDRip.XviD-DiVERSiTY.avi\nFormat                           : AVI\nFormat/Info                      : Audio Video Interleave\nFormat profile                   : OpenDML\nFormat settings                  : rec\nFile size                        : 711 MiB\nDuration                         : 1h 39mn\nOverall bit rate                 : 997 Kbps\nWriting application              : AVI-Mux GUI 1.17.8.3, Feb 16 201019:42:50\nEncoder                          : Skrufern\n\n[color=Green]Video[/color]\n\nID                               : 0\nFormat                           : MPEG-4 Visual\nFormat profile                   : Advanced Simple@L5\nFormat settings, BVOP            : 2\nFormat settings, QPel            : No\nFormat settings, GMC             : No warppoints\nFormat settings, Matrix          : Default (H.263)\nCodec ID                         : XVID\nCodec ID/Hint                    : XviD\nDuration                         : 1h 39mn\nBit rate                         : 866 Kbps\nWidth                            : 720 pixels\nHeight                           : 400 pixels\nDisplay aspect ratio             : 16:9\nFrame rate                       : 23.976 fps\nColor space                      : YUV\nChroma subsampling               : 4:2:0\nBit depth                        : 8 bits\nScan type                        : Progressive\nCompression mode                 : Lossy\nBits/(Pixel*Frame)               : 0.125\nStream size                      : 618 MiB (87%)\nWriting library                  : XviD 1.2.1 (UTC 2008-12-04)\n\n[color=Green]Audio[/color]\n\nID                               : 1\nFormat                           : MPEG Audio\nFormat version                   : Version 1\nFormat profile                   : Layer 3\nMode                             : Joint stereo\nMode extension                   : MS Stereo\nCodec ID                         : 55\nCodec ID/Hint                    : MP3\nDuration                         : 1h 39mn\nBit rate mode                    : Constant\nBit rate                         : 128 Kbps\nChannel(s)                       : 2 channels\nSampling rate                    : 48.0 KHz\nCompression mode                 : Lossy\nStream size                      : 91.3 MiB (13%)\nAlignment                        : Aligned on interleaves\nInterleave, duration             : 835 ms (20.02 video frames)\nInterleave, preload duration     : 216 ms\nTitle                            : VTS_02_1 T80 3_2ch 448Kbps DELAY 0ms\nWriting library                  : LAME3.98r\nEncoding settings                : -m j -V 4 -q 2 -lowpass 17 -b 128\n\n[color=Green]\niMDB...: [url]http://www.imdb.com/title/tt1116184/[/url]\nSource.:[/color] Jackass.3.Unrated.DVDR-TWiZTED\n\n[color=Blue]Greets:[/color]\n\n[color=red]*THC*,MUSE,DiGiTaL iNK,ViSiON,LEGi0N,FLAWL3SS,Rx,Hibees,Rapeseed\nxXTHORNXx,Noir,IMAGiNE,ELEKTRI4KA,KART3LDVD,CTFX,202122,StevieL,Smelly+\nAll the people that make p2p what it is...THANKS[/color]\n\n[color=Green]Screens:[/color]\n\n[IMG]http://leetleech.org/images/31028165806783632473.png[/IMG]\n","torrent":{"xt":"urn:btih:ef8092793dd337b0a4ee4ae4523ff9ca23d5ebff","amp;dn":"Jackass.3D.UNRATED.DVDRip.XviD-DiVERSiTY","amp;tr":["udp%3A%2F%2Ftracker.openbittorrent.com%3A80","udp%3A%2F%2Fopen.demonii.com%3A1337","udp%3A%2F%2Ftracker.coppersurfer.tk%3A6969","udp%3A%2F%2Fexodus.desync.com%3A6969"],"infoHash":"ef8092793dd337b0a4ee4ae4523ff9ca23d5ebff","infoHashBuffer":{"type":"Buffer","data":[239,128,146,121,61,211,55,176,164,238,74,228,82,63,249,202,35,213,235,255]},"announce":[],"urlList":[]}}